<?xml version="1.0" encoding="utf-8"?>
<!-- Generator: Adobe Illustrator 23.1.1, SVG Export Plug-In . SVG Version: 6.00 Build 0)  -->
<svg version="1.1" xmlns="http://www.w3.org/2000/svg" xmlns:xlink="http://www.w3.org/1999/xlink" x="0px" y="0px"
	 viewBox="0 0 864 864" style="enable-background:new 0 0 864 864;" xml:space="preserve">
<style type="text/css">
	.st0{fill:#9E005D;}
	.st1{fill:#666666;}
</style>
<g id="Layer_1">
	<g>
		<path class="st0" d="M464.4,208.7c2.9,0.7,5.7,1.5,8.6,1.9c3.9,0.6,6.9,2.4,9.1,5.5c6,8.1,9.7,17.4,11.3,27.3
			c2.2,14.1,4.2,28.2,5.7,42.4c1.1,10.1,1.6,20.3,1.5,30.5c-0.1,20.5-0.4,41-1.3,61.4c-0.5,11.2-2.2,22.3-3.2,33.4
			c-1.4,14.9-2.6,29.8-3.9,44.7c0,0.5-0.1,1.1-0.2,2.2c-5.3-3.8-10.2-7.3-15.1-10.9c-3.5-2.6-6.9-5.2-10.3-7.9
			c-5.3-4.1-6.5-9.4-5.4-15.8c1.7-9.7,3.4-19.4,4.2-29.1c1.5-19.4,2.9-38.8,3.2-58.2c0.3-17.2-0.3-34.6-1.7-51.8
			c-1.2-14.9-4-29.6-6.3-44.3c-0.9-5.7-2.7-11.3-3.6-17c-0.5-2.8-0.5-5.9,0.4-8.5c0.7-2.1,2.8-3.8,4.3-5.7
			C462.6,208.7,463.5,208.7,464.4,208.7z"/>
		<path class="st0" d="M441.7,208.7c6.2,4.6,9.1,11.3,11.7,18.2c4.4,11.6,5.9,23.8,7.6,36c3.1,22.4,4.1,44.9,3.8,67.5
			c-0.3,19.3-1.4,38.7-2.6,58c-0.8,13-2.3,26-3.6,38.9c-0.1,1-0.8,2.8-1.3,2.8c-1.2,0-2.7-0.5-3.7-1.3c-5-4-9.9-8.2-14.8-12.3
			c-2.7-2.3-5.6-4.4-8.3-6.7c-2.4-2.1-3.2-4.8-3.2-8c-0.4-22.4-1-44.9-1.2-67.3c-0.1-14,0.1-27.9,0.4-41.9
			c0.5-18.3-0.1-36.6-2.3-54.8c-0.5-4.4-1.4-8.8-2.5-13.1c-1.5-5.6-0.7-10.8,1.4-16C429.4,208.7,435.6,208.7,441.7,208.7z"/>
		<path class="st0" d="M291.6,269c3.1,1.7,7.1,3.1,9.9,5.7c4.5,4,8.7,8.5,12.2,13.4c17.5,24.7,36.9,47.8,58.6,68.8
			c27.2,26.3,55,52,82.6,78c22.4,21.2,48.2,37.6,74.5,53.4c13.9,8.4,27.8,16.7,42,24.4c5.2,2.8,11.3,4,17.1,5.6
			c5.5,1.5,11.1,2.4,16.6,3.8c3.5,0.9,4.9,4.7,2.9,7.7c-3.1,4.7-6.4,9.2-9.9,13.6c-2.5,3.1-6.1,3.8-10,3.3
			c-17.2-2.4-33.4-8-48.9-15.9c-21.6-11-42.5-23.3-62-37.7c-15.6-11.4-31.3-22.7-45.9-35.2c-15.2-13.1-29.5-27.4-43.7-41.7
			c-27.8-28.2-53.9-57.9-79.4-88.2C298,316,288,303.8,277.9,291.7c-1.8-2.2-2.6-4.1-1.4-7.1c2.3-5.7,5.4-10.6,10.6-13.9
			C288.1,270,289.5,269.8,291.6,269z"/>
		<path class="st0" d="M271.9,288.4c5.2,7.2,9.6,13.6,14.3,19.7c12.8,16.8,25.4,33.8,38.8,50.1c19.9,24.1,41.4,46.8,64.7,67.7
			c16.9,15.1,33.7,30.3,51.4,44.4c19.5,15.5,39.8,29.9,59.9,44.6c12.1,8.8,24.6,17.1,38.2,23.4c11.3,5.2,23.1,9.1,35.6,10.2
			c4.4,0.4,8.8,1.5,13.1,2.3c1.8,0.3,2.5,1.6,1.1,2.9c-6.2,5.8-11.6,12.9-20.4,15.2c-8.9,2.4-17.9,2-26.7-0.7
			c-19.4-5.8-37-15.7-54-26.3c-19.4-12-38.2-24.9-56.8-38.2c-18.7-13.4-35.9-28.7-51.9-45.3c-19.9-20.7-39.9-41.4-59-62.7
			c-19.8-22-38.6-44.9-57.8-67.5c-1.4-1.7-2.6-3.5-4-5.1c-4.2-4.8-4.4-4.9-1.3-10.3C261.9,304.7,266.8,296.8,271.9,288.4z"/>
		<path class="st0" d="M238.9,362.1c-1.3-9.4,4.5-16.9,6.9-25.3c1-3.5,2.6-6.8,4.3-10c0.8-1.6,2.3-3.8,3.7-3.9
			c1.3-0.1,3.3,1.7,4.3,3.2c15.7,24.8,33.4,48,52.6,70.1c20.4,23.6,42.1,46.2,65.8,66.6c19.7,17,40,33.4,60.5,49.5
			c18.5,14.6,38.3,27.2,58.8,38.9c12.5,7.2,25.8,12.4,39.2,17.7c5,2,9.8,4.8,14.5,7.6c5,3,5,6.1,0.2,9.4c-5,3.4-9.7,7.1-15.8,8.5
			c-7.9,1.8-15.3,0.2-22.5-2.2c-22.2-7.5-41.7-20-61.3-32.3c-35.4-22-65.9-50-95.8-78.7c-31.7-30.4-61.6-62.6-91.2-95.1
			c-7.2-7.9-14.9-15.5-22.4-23.2C240.1,362.5,239.4,362.3,238.9,362.1L238.9,362.1z"/>
		<path class="st0" d="M302.1,649.6c0,4.4,0.1,8,0,11.7c-1,23-15.8,39.1-40.6,38.2c-13.7-0.5-25.4-6.9-34.2-17.5
			c-8.4-10.1-8.4-22.7-0.8-35.4c8.3-13.6,20.6-19.8,36.3-19.1c7,0.3,13.9,2.2,20.8,3.4c0.8,0.1,1.7,0.2,3.2,0.4
			c-4.8-9-11.2-15.2-19.8-19.1c-11.5-5.3-23.7-5.6-36-4.5c-28.7,2.6-57.3,4.5-86.1,4c-1.2,0-2.5-0.5-4.6-0.9
			c5.6-3.1,10.3-5.9,15.1-8.3c1.1-0.5,2.7,0.1,4,0.1c15.3-0.6,30.7-1.1,46-1.7c15.2-0.7,30.3-3.5,45.6-1.9
			c21.7,2.3,37.6,12.7,46.1,33.2c1.7,4,4,6.4,7.6,8.4c15.5,8.7,28.5,20.5,40.5,33.6c13.1,14.3,29.2,24.2,48,29.1
			c12.4,3.2,25.1,4.1,38.1,3c28.1-2.5,53.2-12.8,76.9-27.5c16.6-10.2,34.3-18.2,52.7-24.4c13.2-4.4,26.5-8.7,40-11.7
			c21-4.7,42.3-7.3,64-5.3c11.5,1.1,22.9,2.6,33.6,7.4c8.1,3.6,15.5,8.3,21.5,15c0.6,0.7,1,1.5,1.5,2.2c-0.2,0.3-0.5,0.6-0.7,0.8
			c-3.1-1.4-6.3-2.7-9.4-4.2c-13.3-6.2-27.2-9.9-41.7-11.7c-20.7-2.5-41.1-0.6-61.4,3.5c-37.4,7.5-72.1,21.6-104.5,41.5
			c-16.6,10.2-34.7,17-53.8,20.9c-28.9,5.8-56.9,3.9-83.3-10.5c-12.2-6.6-22.5-15.6-31.8-25.8c-8.7-9.5-18.3-17.9-29.2-24.8
			C304.7,650.9,303.7,650.5,302.1,649.6z M258.1,690.1c18.9,0.6,27.5-6.2,31.5-14.8c4.5-9.4,4.4-19.3,2.3-29.2
			c-0.3-1.4-2-3.2-3.5-3.6c-6.6-2.1-13.3-4.3-20-5.7c-16.6-3.5-31.8,5.3-37.2,21.3c-1.9,5.5-1.7,11.1,1.8,16.1
			C240.4,684.7,251,689.5,258.1,690.1z"/>
		<path class="st0" d="M495.1,454.2c1.2-8,2.3-14.9,3.2-21.7c1.2-9.1,2.2-18.1,3.3-27.2c0.5-4.7,1.2-9.3,1.3-14
			c0.1-4.7,1.8-8.6,4.1-12.5c11.7-19.8,21.3-40.5,30.2-61.7c5.7-13.7,11.2-27.6,16.2-41.6c2.3-6.5,3-13.5,4.4-20.3
			c0.5-2.3,1.1-4.6,1.8-7.6c1.9,1.2,3.4,2,4.8,3c3.7,2.8,7.3,5.9,11.1,8.7c5.8,4.2,7.2,10.4,7.5,16.9c0.5,12-2.1,23.6-6.3,34.8
			c-16.7,43.9-39.3,84.6-66.3,122.9c-4.1,5.9-8.4,11.7-12.6,17.5C497,452.1,496.3,452.8,495.1,454.2z"/>
		<path class="st0" d="M318.7,460.6c1,0.6,2,1.1,2.9,1.8c9.6,8.8,19.2,17.6,28.9,26.4c4.7,4.3,9.4,8.7,14.3,12.8
			c6.6,5.5,10,12.9,13.4,20.4c9.2,20.3,20.4,39.5,32.8,58c5.8,8.7,11.8,17.4,17.5,26.1c1.3,2,2.1,4.3,2.8,6.6
			c1.1,3.3-0.3,5.4-3.8,5.6c-2.8,0.2-5.8,0.2-8.6-0.3c-7.6-1.2-15.5-1.4-22.2-6.1c-5.6-3.9-9.7-8.9-13.4-14.5
			c-20.4-31.3-37.3-64.5-51.1-99.3c-4.6-11.7-9.3-23.5-13.9-35.2c-0.2-0.5-0.2-1.1-0.3-1.6C318.3,461.1,318.5,460.8,318.7,460.6z"/>
		<path class="st0" d="M422.8,313.3c0.5,20.9,1,41.9,1.7,62.8c0.2,7,0.9,13.9,1.1,20.9c0,1.5-0.9,3-1.5,4.6c-1.4-0.6-3-0.9-4.1-1.9
			c-4.4-4-10-7.3-12.1-13.3c-1.8-5.1-2.9-10.5-4-15.9c-1.7-8.1-3.4-16.3-4.5-24.5c-2-14.3-3.7-28.7-5.2-43.1
			c-1-10-1.4-20.1-2.1-30.1c-0.4-5.8-0.8-11.6-1.5-17.4c-0.9-7.5-2.1-14.9-3-22.4c-0.4-3.1-0.7-6.2-0.4-9.2
			c0.8-10.1,3.3-10.9,12.4-12.9c6.1-1.4,9.8,1.4,13,6.4c5.4,8.8,8.3,18,8.4,28.4C421.2,268.2,422.1,290.8,422.8,313.3
			C422.8,313.3,422.8,313.3,422.8,313.3z"/>
		<path class="st0" d="M400.4,374.9c-0.3,0.8-0.8,2.5-1.1,2.4c-1.3-0.2-2.8-0.5-3.7-1.3c-5.1-4.6-10.1-9.3-14.9-14.2
			c-6.5-6.7-13-13.5-19.1-20.6c-2.2-2.6-4.3-6-4.7-9.2c-2.1-14.6-3.7-29.2-5.1-43.9c-1.1-11-1.8-22.1-2.5-33.2
			c-0.5-7.5,1-14.7,3.4-21.9c2.6-7.5,7.6-11.9,15.2-13.7c6.1-1.5,7.9-0.3,9.4,6.1c2.9,12.2,2.8,24.7,3.6,37.1
			c0.6,9.6,1.8,19.1,3.1,28.6c1.2,8.7,2.6,17.4,4.2,26c1.6,9.1,3.5,18.1,5.4,27.2c1.8,8.5,3.6,16.9,5.5,25.4
			C399.4,371.3,399.9,372.9,400.4,374.9z"/>
		<path class="st0" d="M270.6,533c-10.2,6.2-20.4,12.5-30.8,18.6c-16.8,9.9-34.8,15.3-54.3,12.5c-8.2-1.2-16.3-3.8-24-6.7
			c-11.2-4.3-21.9-9.8-33-14.2c-15.4-6.1-31.3-9.5-48-6.6c-9.2,1.6-17.7,4.9-23.8,12.4c-6.5,7.9-5.9,20.1,1.1,29.2
			c7.3,9.7,17.4,15.1,28.8,18.1c7.3,1.9,15,2.6,22.5,3.8c0.5,0.1,1.1,0.3,1.6,0.4c0.4,0.5,0.9,1,1.3,1.5c-0.9,0.2-1.8,0.4-2.7,0.7
			c-0.5,0.2-1,0.5-1.5,0.8c-3.2,1.8-6.2,4.6-9.5,5.1c-3.2,0.5-6.8-1.5-10.2-2.4c-12.9-3.3-24.8-8.5-34.2-18.5
			c-6.3-6.6-10-14.5-10.8-23.5c-1-12.2,4.7-21.3,14.4-28.1c8.9-6.2,18.9-8.7,29.6-9.3c20.7-1.1,39.7,4.7,58,13.7
			c11.9,5.8,24.1,11,37.2,13.6c26.7,2.4,62.4-17.8,66-20.1c4.8-2.9,9.5-5.8,14.4-8.8c-1.5-3.8-2.8-7.3-4.1-10.6
			c17.9-5.5,35.4-10.9,52.9-16.3c0.1,0.1,0.2,0.3,0.4,0.4c-4.3,3.6-8.6,7.4-13,10.9c-8.6,6.8-17.3,13.5-25.9,20.3
			C271.9,530.7,271.3,532,270.6,533L270.6,533z"/>
		<path class="st0" d="M534.3,406.5c1,0.6,1.4,0.8,1.9,1.2c16.6,10.9,33.5,21.3,49.6,32.9c15.3,11.1,28.8,24.3,40.1,39.6
			c4.1,5.5,4.7,9.9,1.4,15.7c-2.5,4.3-4.3,9-6.5,13.5c-2.2,4.3-4.1,4.5-7.3,0.7c-3.5-4.2-6.9-8.6-10-13.1
			c-7.5-10.9-17.2-19.7-28.1-26.9c-16.9-11.3-34.1-22-51.3-32.8c-5.5-3.4-6.4-6.5-2.9-11.8c3.4-5.2,6.6-10.4,10-15.5
			C532.1,408.6,533.3,407.6,534.3,406.5z"/>
		<path class="st0" d="M504.2,375c0.3-5.7,0.8-11.4,0.9-17c0.2-15.1,0.6-30.2,0.3-45.3c-0.1-6.6,2-12.2,4.4-18
			c4.8-11.8,9.9-23.6,13.6-35.7c2.8-9.1,3.6-18.8,5.3-28.2c0.1-0.4,0.2-0.9,0.4-1.8c1.7,0.6,3.3,1.1,4.7,1.8
			c5.5,2.8,10.9,5.7,16.4,8.6c3.7,1.9,5.3,4.7,5.3,9.1c0.1,11.2-3.5,21.6-7.4,31.8c-6.3,16.7-12.3,33.6-19.6,49.9
			c-6.6,14.8-14.7,28.9-22.1,43.3c-0.4,0.7-0.8,1.3-1.3,1.9C504.8,375.2,504.5,375.1,504.2,375z"/>
		<path class="st0" d="M640.5,456.8c-1.9,6.3-3.6,12.9-5.9,19.3c-1.1,3-3.6,3.1-5.9,0.2c-3.6-4.4-7.2-8.9-10.3-13.7
			c-4.9-7.5-11.4-13.4-18.3-18.8c-17.9-14.2-37.4-26.1-57.3-37.5c-4-2.3-5.3-5.9-3.2-9.9c3.4-6.3,7.1-12.5,10.8-18.7
			c0.3-0.5,2.2-0.7,2.8-0.3c15.4,10,31,19.7,46,30.3c8.7,6.2,16.6,13.6,24.6,20.8c6.1,5.6,11.1,12.1,14.3,19.9
			C639.1,451,639.6,453.7,640.5,456.8z"/>
		<path class="st0" d="M515.3,438.5c2.2,0.7,3.7,0.9,5,1.6c29.5,16.6,57.5,35.2,80.5,60.4c4.3,4.7,6.7,11.1,9.6,16.9
			c1.1,2.1-1,2.6-2.5,2.3c-3-0.6-5.9-1.7-8.9-2.5c-14.3-3.6-27.9-9-40.4-16.9c-15.2-9.7-30.4-19.5-45.5-29.2
			c-3.4-2.2-6.9-4.1-10.2-6.3c-3.9-2.6-4.7-6.5-2-10.3c3-4.2,5.9-8.5,9.2-12.4C511.4,440.4,513.7,439.5,515.3,438.5z"/>
		<path class="st0" d="M455.6,617.7c-2.7-1-7.1-2-10.8-4.2c-13.1-7.6-22.6-18.9-30.3-31.6c-9.4-15.5-18-31.4-26.8-47.3
			c-1.2-2.2-1.9-4.9-2.4-7.4c-0.7-3.4,1.4-5.1,4.3-3.4c4.1,2.3,8,4.9,11.7,7.7c11,8.3,22.3,16.4,32.8,25.4c10.7,9.1,19,20.3,26.8,32
			c3.2,4.7,6.9,9.1,10.3,13.6c0.4,0.5,1,1,1.4,1.5c4.5,6,3,10.6-4.3,12.3C464.7,617.1,461,617.1,455.6,617.7z"/>
		<path class="st0" d="M631.5,381.9c-3.1-0.7-8.2-2.1-13.4-3.3c-9.1-2-18.3-4-27.5-5.6c-8.9-1.6-17.8-2.5-26.7-4
			c-5.5-0.9-6.9-3.7-4.5-8.7c2.2-4.6,4.4-9.3,6.7-13.8c2.4-4.8,6.4-6.9,11.8-6.5c8.4,0.6,16.9,0.8,25.3,1.9
			c11.5,1.6,22.2,5.8,31,13.3c2.9,2.5,4,7.2,5.7,11c0.9,2.1,1.2,4.4,1.5,6.6C642.5,379,640.1,381.8,631.5,381.9z"/>
		<path class="st0" d="M348.3,229.7c-0.6,6.2-1.7,12.5-1.6,18.7c0.1,12.4,0.5,24.9,1.3,37.3c0.5,8.4,1.7,16.8,2.7,25.2
			c0.7,5.2,1.7,10.3,2.4,15.5c0.1,1-0.4,2-0.7,3c-0.8-0.5-1.9-0.8-2.4-1.5c-9.9-12.5-19.8-25.1-29.7-37.6c-3.2-4-3.8-8.7-4.3-13.5
			c-0.7-6.6-1.2-13.2-1.6-19.8c-0.4-6.7,2-12.4,7.5-16.4c6.5-4.7,13-9.1,19.6-13.6c0.8-0.6,1.9-0.8,2.9-1
			C347.3,225.5,348.6,226.6,348.3,229.7z"/>
		<path class="st0" d="M251.4,469c-12.4,0.2-15.7-3.7-17.2-14.7c-1-7.2,1.6-11.7,7.3-15.4c9.4-6.1,19.6-10.1,30.4-13
			c1.3-0.4,2.6-0.8,3.9-1.1c6.4-1.3,11.7,0.2,16.2,5.5c5.7,6.7,11.9,13,17.8,19.5c0.8,0.8,1.8,2.4,1.5,3c-0.6,1-2,1.7-3.2,2
			c-13.5,3.5-27.1,7-40.6,10.4C261.2,466.6,254.9,468.1,251.4,469z"/>
		<path class="st0" d="M266.2,507.2c-3.8-0.4-6.6-0.2-9-1.1c-2.2-0.8-4.7-2.2-6-4.1c-2-3-3.4-6.4-4.7-9.9c-1-2.8-0.1-5.8,2.5-7.3
			c5.3-3.1,10.6-6.3,16.2-8.5c12.7-4.9,25.7-9.1,38.5-13.9c7-2.6,9.4-1.9,12,5c2.1,5.7,4.1,11.3,6.2,17c1.2,3.3,0.1,6.1-3.3,7.3
			c-12.6,4.4-25.1,9-37.7,12.9C275.9,506.3,270.4,506.5,266.2,507.2z"/>
		<path class="st0" d="M272.1,535.9c5.7-4.5,11.4-9,17-13.6c9.9-8.1,19.7-16.2,29.6-24.3c4.4-3.6,7.4-2.8,9.5,2.3
			c2.3,5.6,4.6,11.1,6.9,16.7c1.9,4.7,1,9-2.7,12.4c-4.8,4.4-9.5,8.8-14.3,13.3c-0.6,0.6-1.1,1.4-1.6,2.1c0,0,0.1-0.1,0.1-0.1
			c-3.2,2.3-6.3,4.7-9.8,6.7c-3.2,1.8-6.7,3.3-10.2,4.6c-4.8,1.7-8.6-0.1-11.8-3.7C280,546.9,271.5,534.9,272.1,535.9z"/>
		<path class="st0" d="M573.5,382.4c2.9-0.7,5.8-1.8,8.7-2.1c13.2-1.2,26.5-1.1,38.9,3.6c11.2,4.3,20.7,11.1,24.4,23.6
			c2.5,8.6-4,15.4-12.9,14c-9.3-1.5-16.5-7-23.8-12.2c-10.9-7.7-21.7-15.5-32.6-23.2c-1-0.7-1.8-1.6-2.8-2.4
			C573.5,383.3,573.5,382.8,573.5,382.4z"/>
		<path class="st0" d="M386.3,611.1c-2-0.3-4-0.4-5.9-0.9c-3.8-1-7.6-2.4-11.4-3.5c-3.9-1.1-6.4-3.4-6.4-8.4
			c-4.4,4.3-8.6,2.9-12.8,0.6c-5.7-3.1-11.6-6-17.4-8.9c-2.2-1.1-2.6-2.3-1.8-4.6c4.4-11.8,8.6-23.7,13-35.5
			c0.6-1.5,2.3-2.6,3.4-3.9c1.3,1.2,2.9,2.1,3.7,3.6c9.4,16,18.6,32.2,28,48.2c2.5,4.2,5.4,8.1,8.1,12.1
			C386.6,610.3,386.4,610.7,386.3,611.1z"/>
		<path class="st0" d="M616.3,339.7c-9.3-1.1-18-2.3-26.7-3.3c-3.3-0.4-6.6-0.5-9.9-0.7c-5.2-0.2-7.2-3.1-5.4-7.9
			c3-8.3,6-16.7,9.1-25c0.7-1.8,1.5-2.9,3.8-2.2c6.6,1.9,13.4,3.4,20,5.5c8.2,2.6,13.5,8.6,17.1,16.3c1.5,3.3,3,6.6,4.2,10
			c1.2,3.7-0.6,6.3-4.4,6.9c-1.6,0.2-3.2,0.3-4.8,0.4C618,339.8,616.9,339.7,616.3,339.7z"/>
		<path class="st0" d="M504.9,298.2c-0.2-0.8-0.5-1.6-0.5-2.4c-1.3-12.6-2.3-25.3-3.8-37.9c-1.2-11-2.8-22-4.2-33
			c-0.8-6.4,1-8.1,7-6.1c7,2.3,13.9,5.2,20.8,7.8c1.9,0.7,2.5,2.2,2.1,4.1c-1.7,8.2-3.1,16.6-5.3,24.7c-3.2,11.4-6.9,22.6-10.6,33.9
			c-1,3.1-2.7,6.1-4.1,9.1C505.8,298.4,505.4,298.3,504.9,298.2z"/>
		<path class="st0" d="M316.5,544.8c2.4-1.8,4.9-3.6,7.3-5.5c2.8-2.3,5.6-4.6,8.4-7.1c2.5-2.2,5-4.1,8.5-1.9
			c2.6,1.6,3.7,4.6,2.4,8.5c-4.7,13.3-9.5,26.6-14.7,39.7c-2.4,6.1-5.7,7-11.3,3.7c-3.5-2.1-7-4.3-10.2-6.9c-6-4.9-6.9-9.7-2.6-16.1
			c2.5-3.9,6-7.1,9.1-10.6c1.1-1.3,2.2-2.6,3.2-3.9C316.7,544.7,316.5,544.8,316.5,544.8z"/>
		<path class="st0" d="M247.4,428.5c-3.3-0.5-6.6-0.8-9.8-1.6c-5.6-1.3-8.8-9.2-6.1-14.3c3.7-7,10.4-10.8,16.1-15.6
			c2.6-2.2,5.6-4,8.6-5.5c1-0.5,3.3,0.1,4,1c5.6,6.7,11.1,13.6,16.5,20.5c3.2,4.1,2.5,6.5-2.4,8.1c-7.4,2.4-15,4.7-22.5,6.8
			c-1.4,0.4-3,0.2-4.4,0.3C247.4,428.4,247.4,428.5,247.4,428.5z"/>
		<path class="st0" d="M516.9,603.1c-3.3,1.4-6.5,2.8-9.9,4c-2.6,0.9-5.2,1.6-7.8,2.4c-3.8,1.2-7.5,0.7-10.9-1.3
			c-11.8-7-21.8-16.1-30.1-27c-1.3-1.8-2.2-4-3-6.1c-0.9-2.1,0.2-3.3,2.3-2.8c2.2,0.5,4.3,1.3,6.3,2.4c16.8,8.7,33.6,17.4,50.4,26.1
			c0.8,0.4,1.6,0.7,2.4,1C516.7,602.2,516.8,602.6,516.9,603.1z"/>
		<path class="st0" d="M236.1,392.8c-3.9-0.5-4.7-1.5-3.7-5c2.1-6.9,11.3-11.1,17.8-7.8c1.5,0.8,2.9,2.9,3,4.5
			c0.1,1.3-1.5,3.6-2.9,4.1C245.7,390.3,240.9,391.4,236.1,392.8z"/>
		<path class="st0" d="M590,280.6c2.6,2.5,4.6,4.4,6.7,6.3c2.8,2.5,5.6,4.9,8.3,7.6c0.6,0.6,1.1,2,0.8,2.6c-0.3,0.7-1.7,1.4-2.4,1.3
			c-4.6-1-9.3-2.1-13.8-3.4c-0.8-0.2-1.6-1.4-1.8-2.2C586.8,288.3,588.3,284.4,590,280.6z"/>
	</g>
</g>
<g id="Layer_2">
	<path class="st1" d="M624.2,320.1c0,0,84.5-46.1,93-49c8.5-2.8,56.8-28.4,63.2-17s-36.9,56.8-44,45.4c-3.9-6.2,22.4-15.2,15.6-24.8
		c-5-7.1-117.8,64.6-117.8,64.6S633.4,327.2,624.2,320.1z"/>
	<path class="st1" d="M258,521l-166.1,93c-4.3,8.5,4.3,18.5,12.1,17l165.4-93C264.4,535.9,259.4,526.6,258,521z"/>
</g>
</svg>
